<svg xmlns="http://www.w3.org/2000/svg" viewBox="0 0 200 260" fill="none" stroke="#eceae4" stroke-width="2.2" stroke-linecap="round" stroke-linejoin="round">
  <path d="M100 30v-8M92 22h16" stroke-width="3"/>
  <path d="M86 34c0-6 6-10 14-10s14 4 14 10" stroke-width="3"/>
  <circle cx="100" cy="112" r="74" stroke-opacity=".9"/>
  <circle cx="100" cy="112" r="64" stroke-opacity=".5" stroke-width="1.4"/>
  <circle cx="100" cy="112" r="54"/>
  <g stroke-width="1.6" stroke-opacity=".7">
    <path d="M100 62v10M100 152v10M50 112h10M140 112h10"/>
    <path d="M135 77l-7 7M65 147l7-7M135 147l-7-7M65 77l7 7"/>
  </g>
  <path d="M100 112V78M100 112l26 16" stroke-width="2.6"/>
  <circle cx="100" cy="112" r="4" fill="#eceae4" stroke="none"/>
  <path d="M46 168c-10 14-14 30-10 46M154 168c10 14 14 30 10 46" stroke-opacity=".45"/>
  <g stroke-opacity=".8">
    <path d="M60 206c-12 4-20 14-22 26M140 206c12 4 20 14 22 26"/>
  </g>
  <path d="M100 196c-16 0-28 10-32 24 12 8 22 12 32 12s20-4 32-12c-4-14-16-24-32-24Z" stroke-opacity=".7"/>
  <path d="M100 206v26" stroke-opacity=".5"/>
</svg>
